<?xml version="1.0" standalone="no"?>
<!DOCTYPE svg PUBLIC "-//W3C//DTD SVG 20010904//EN"
 "http://www.w3.org/TR/2001/REC-SVG-20010904/DTD/svg10.dtd">
<svg version="1.0" xmlns="http://www.w3.org/2000/svg"
 width="50.000000pt" height="50.000000pt" viewBox="0 0 50.000000 50.000000"
 preserveAspectRatio="xMidYMid meet">

<g transform="translate(0.000000,50.000000) scale(0.100000,-0.100000)"
fill="#000" stroke="none">
<path d="M245 270 l-118 -141 -53 52 c-42 42 -56 51 -66 41 -10 -10 2 -26 52
-77 35 -36 67 -65 71 -65 12 0 252 292 253 308 3 40 -31 11 -139 -118z"/>
<path d="M356 271 c-73 -88 -122 -138 -130 -135 -23 9 -29 -16 -10 -37 9 -10
20 -19 25 -19 12 0 252 291 253 308 3 40 -31 11 -138 -117z"/>
</g>
</svg>
